<svg xmlns="http://www.w3.org/2000/svg" xmlns:xlink="http://www.w3.org/1999/xlink" width="800" zoomAndPan="magnify" viewBox="0 0 600 449.999984" height="600" preserveAspectRatio="xMidYMid meet" version="1.0"><defs><g/><clipPath id="0f43fbc29e"><path d="M 180 188.78125 L 253 188.78125 L 253 261.53125 L 180 261.53125 Z M 180 188.78125 " clip-rule="nonzero"/></clipPath></defs><rect x="-60" width="720" fill="#ffffff" y="-44.999998" height="539.99998" fill-opacity="1"/><rect x="-60" width="720" fill="#ffffff" y="-44.999998" height="539.99998" fill-opacity="1"/><rect x="-60" width="720" fill="#ffffff" y="-44.999998" height="539.99998" fill-opacity="1"/><path fill="#ffffff" d="M 267.988281 213.511719 L 271.777344 213.511719 L 272.238281 216.757812 L 272.5625 216.757812 C 273.332031 215.519531 274.363281 214.578125 275.65625 213.929688 C 276.980469 213.277344 278.441406 212.953125 280.042969 212.953125 C 283.125 212.953125 285.496094 214.003906 287.160156 216.109375 C 288.820312 218.179688 289.652344 221.382812 289.652344 225.714844 C 289.652344 229.980469 288.820312 233.183594 287.160156 235.316406 C 285.496094 237.421875 283.230469 238.472656 280.367188 238.472656 C 277.011719 238.472656 274.5625 237.359375 273.023438 235.132812 L 272.746094 235.132812 L 272.746094 245.941406 L 267.988281 245.941406 Z M 278.703125 234.4375 C 280.890625 234.4375 282.445312 233.785156 283.371094 232.488281 C 284.292969 231.1875 284.757812 229.023438 284.757812 225.992188 L 284.757812 225.574219 C 284.757812 222.480469 284.292969 220.285156 283.371094 218.984375 C 282.445312 217.65625 280.890625 216.992188 278.703125 216.992188 C 276.640625 216.992188 275.132812 217.71875 274.175781 219.171875 C 273.222656 220.625 272.746094 222.757812 272.746094 225.574219 L 272.746094 225.945312 C 272.746094 228.730469 273.222656 230.847656 274.175781 232.300781 C 275.132812 233.722656 276.640625 234.4375 278.703125 234.4375 Z M 278.703125 234.4375 " fill-opacity="1" fill-rule="nonzero"/><path fill="#ffffff" d="M 304.675781 238.472656 C 300.765625 238.472656 297.855469 237.4375 295.945312 235.363281 C 294.039062 233.292969 293.082031 230.074219 293.082031 225.714844 C 293.082031 221.351562 294.039062 218.136719 295.945312 216.0625 C 297.855469 213.988281 300.765625 212.953125 304.675781 212.953125 C 308.21875 212.953125 310.867188 213.929688 312.625 215.878906 C 314.378906 217.792969 315.257812 220.855469 315.257812 225.0625 L 315.257812 226.917969 L 297.980469 226.917969 C 298.101562 229.546875 298.6875 231.496094 299.734375 232.765625 C 300.8125 234.003906 302.476562 234.621094 304.722656 234.621094 C 306.480469 234.621094 307.894531 234.203125 308.972656 233.367188 C 310.050781 232.535156 310.589844 231.25 310.589844 229.519531 L 315.257812 229.519531 C 315.257812 232.425781 314.269531 234.652344 312.300781 236.199219 C 310.359375 237.714844 307.820312 238.472656 304.675781 238.472656 Z M 310.3125 223.300781 C 310.3125 218.96875 308.433594 216.804688 304.675781 216.804688 C 302.582031 216.804688 301.011719 217.332031 299.964844 218.382812 C 298.917969 219.402344 298.289062 221.042969 298.070312 223.300781 Z M 310.3125 223.300781 " fill-opacity="1" fill-rule="nonzero"/><path fill="#ffffff" d="M 330.347656 238.472656 C 326.433594 238.472656 323.523438 237.4375 321.617188 235.363281 C 319.707031 233.292969 318.75 230.074219 318.75 225.714844 C 318.75 221.351562 319.707031 218.136719 321.617188 216.0625 C 323.523438 213.988281 326.433594 212.953125 330.347656 212.953125 C 333.886719 212.953125 336.535156 213.929688 338.292969 215.878906 C 340.046875 217.792969 340.925781 220.855469 340.925781 225.0625 L 340.925781 226.917969 L 323.648438 226.917969 C 323.769531 229.546875 324.355469 231.496094 325.402344 232.765625 C 326.480469 234.003906 328.144531 234.621094 330.390625 234.621094 C 332.148438 234.621094 333.566406 234.203125 334.640625 233.367188 C 335.71875 232.535156 336.257812 231.25 336.257812 229.519531 L 340.925781 229.519531 C 340.925781 232.425781 339.9375 234.652344 337.96875 236.199219 C 336.027344 237.714844 333.488281 238.472656 330.347656 238.472656 Z M 335.980469 223.300781 C 335.980469 218.96875 334.105469 216.804688 330.347656 216.804688 C 328.253906 216.804688 326.679688 217.332031 325.632812 218.382812 C 324.585938 219.402344 323.957031 221.042969 323.742188 223.300781 Z M 335.980469 223.300781 " fill-opacity="1" fill-rule="nonzero"/><path fill="#ffffff" d="M 345.804688 213.511719 L 349.640625 213.511719 L 350.101562 217.269531 L 350.378906 217.269531 C 351.488281 214.390625 353.351562 212.953125 355.96875 212.953125 C 356.832031 212.953125 357.585938 213.078125 358.234375 213.324219 L 358.234375 217.871094 L 356.523438 217.871094 C 354.707031 217.871094 353.257812 218.398438 352.179688 219.449219 C 351.101562 220.5 350.5625 222.109375 350.5625 224.273438 L 350.5625 237.914062 L 345.804688 237.914062 Z M 345.804688 213.511719 " fill-opacity="1" fill-rule="nonzero"/><path fill="#ffffff" d="M 361.957031 204.371094 L 366.714844 204.371094 L 366.714844 237.914062 L 361.957031 237.914062 Z M 361.957031 204.371094 " fill-opacity="1" fill-rule="nonzero"/><path fill="#ffffff" d="M 373.007812 204.371094 L 377.71875 204.371094 L 377.71875 209.242188 L 373.007812 209.242188 Z M 373.007812 213.511719 L 377.765625 213.511719 L 377.765625 237.914062 L 373.007812 237.914062 Z M 373.007812 213.511719 " fill-opacity="1" fill-rule="nonzero"/><path fill="#ffffff" d="M 392.792969 238.472656 C 389.464844 238.472656 386.925781 237.777344 385.167969 236.382812 C 383.445312 234.992188 382.582031 233.246094 382.582031 231.140625 C 382.582031 230.800781 382.582031 230.585938 382.582031 230.492188 C 382.613281 230.367188 382.628906 230.289062 382.628906 230.261719 L 387.292969 230.261719 L 387.292969 230.675781 C 387.292969 232.007812 387.832031 233.011719 388.910156 233.691406 C 389.988281 234.34375 391.359375 234.667969 393.023438 234.667969 C 394.5 234.667969 395.734375 234.390625 396.71875 233.832031 C 397.734375 233.277344 398.242188 232.488281 398.242188 231.464844 C 398.242188 230.664062 397.964844 230.011719 397.410156 229.519531 C 396.855469 228.992188 396.179688 228.589844 395.378906 228.3125 C 394.578125 228.003906 393.421875 227.644531 391.914062 227.246094 C 390.066406 226.78125 388.558594 226.316406 387.386719 225.851562 C 386.21875 225.386719 385.214844 224.691406 384.382812 223.765625 C 383.582031 222.835938 383.183594 221.597656 383.183594 220.050781 C 383.183594 217.824219 384.09375 216.09375 385.910156 214.855469 C 387.726562 213.589844 390.144531 212.953125 393.160156 212.953125 C 395.039062 212.953125 396.671875 213.246094 398.058594 213.835938 C 399.476562 214.390625 400.554688 215.179688 401.292969 216.203125 C 402.0625 217.222656 402.445312 218.367188 402.445312 219.636719 L 402.402344 220.5625 L 397.734375 220.5625 L 397.734375 220.238281 C 397.734375 219.21875 397.320312 218.398438 396.488281 217.777344 C 395.6875 217.128906 394.441406 216.804688 392.746094 216.804688 C 391.113281 216.804688 389.914062 217.097656 389.144531 217.6875 C 388.402344 218.242188 388.035156 218.910156 388.035156 219.679688 C 388.035156 220.640625 388.496094 221.351562 389.421875 221.816406 C 390.34375 222.28125 391.804688 222.742188 393.808594 223.207031 C 395.75 223.671875 397.335938 224.152344 398.566406 224.644531 C 399.796875 225.109375 400.859375 225.851562 401.753906 226.871094 C 402.648438 227.863281 403.09375 229.191406 403.09375 230.863281 C 403.09375 233.460938 402.152344 235.378906 400.277344 236.617188 C 398.429688 237.851562 395.933594 238.472656 392.792969 238.472656 Z M 392.792969 238.472656 " fill-opacity="1" fill-rule="nonzero"/><path fill="#ffffff" d="M 413.746094 238.425781 C 411.898438 238.425781 410.558594 237.898438 409.726562 236.847656 C 408.894531 235.765625 408.480469 234.4375 408.480469 232.859375 L 408.480469 217.453125 L 405.523438 217.453125 L 405.523438 213.511719 L 408.527344 213.511719 L 409.449219 206.691406 L 413.238281 206.691406 L 413.238281 213.511719 L 417.347656 213.511719 L 417.347656 217.453125 L 413.238281 217.453125 L 413.238281 232.394531 C 413.238281 233.816406 413.898438 234.527344 415.222656 234.527344 L 417.347656 234.527344 L 417.347656 237.777344 C 416.949219 237.960938 416.394531 238.117188 415.683594 238.238281 C 415.007812 238.363281 414.359375 238.425781 413.746094 238.425781 Z M 413.746094 238.425781 " fill-opacity="1" fill-rule="nonzero"/><g clip-path="url(#0f43fbc29e)"><path fill="#008037" d="M 252.464844 225.15625 C 252.464844 245.246094 236.25 261.53125 216.25 261.53125 C 196.246094 261.53125 180.03125 245.246094 180.03125 225.15625 C 180.03125 205.066406 196.246094 188.78125 216.25 188.78125 C 236.25 188.78125 252.464844 205.066406 252.464844 225.15625 Z M 252.464844 225.15625 " fill-opacity="1" fill-rule="nonzero"/><path fill="#24292e" d="M 216.25 258.933594 C 234.820312 258.933594 249.878906 243.8125 249.878906 225.15625 C 249.878906 206.503906 234.820312 191.378906 216.25 191.378906 C 197.675781 191.378906 182.617188 206.503906 182.617188 225.15625 C 182.617188 243.8125 197.675781 258.933594 216.25 258.933594 Z M 216.25 261.53125 C 236.25 261.53125 252.464844 245.246094 252.464844 225.15625 C 252.464844 205.066406 236.25 188.78125 216.25 188.78125 C 196.246094 188.78125 180.03125 205.066406 180.03125 225.15625 C 180.03125 245.246094 196.246094 261.53125 216.25 261.53125 Z M 216.25 261.53125 " fill-opacity="1" fill-rule="evenodd"/></g><path fill="#24292e" d="M 215.058594 205.671875 L 199.4375 205.671875 L 199.4375 249.839844 L 211.574219 249.839844 L 211.574219 240.601562 L 215.058594 240.601562 C 224.957031 240.601562 233.066406 232.828125 233.066406 223.136719 C 233.066406 213.445312 224.957031 205.671875 215.058594 205.671875 Z M 211.574219 228.765625 L 211.574219 217.507812 L 215.058594 217.507812 C 218.34375 217.507812 220.925781 220.074219 220.925781 223.136719 C 220.925781 226.199219 218.34375 228.765625 215.058594 228.765625 Z M 211.574219 228.765625 " fill-opacity="1" fill-rule="evenodd"/><path fill="#ffffff" d="M 203.316406 204.371094 L 217.644531 204.371094 C 226.875 204.371094 234.359375 211.609375 234.359375 220.539062 C 234.359375 229.464844 226.875 236.703125 217.644531 236.703125 L 212.867188 236.703125 L 212.867188 245.941406 L 203.316406 245.941406 Z M 212.867188 227.464844 L 217.644531 227.464844 C 221.601562 227.464844 224.808594 224.363281 224.808594 220.539062 C 224.808594 216.710938 221.601562 213.609375 217.644531 213.609375 L 212.867188 213.609375 Z M 212.867188 227.464844 " fill-opacity="1" fill-rule="evenodd"/><path fill="#24292e" d="M 202.023438 203.070312 L 217.644531 203.070312 C 227.542969 203.070312 235.652344 210.847656 235.652344 220.539062 C 235.652344 230.230469 227.542969 238.003906 217.644531 238.003906 L 214.160156 238.003906 L 214.160156 247.242188 L 202.023438 247.242188 Z M 204.609375 205.671875 L 204.609375 244.644531 L 211.574219 244.644531 L 211.574219 235.40625 L 217.644531 235.40625 C 226.207031 235.40625 233.066406 228.703125 233.066406 220.539062 C 233.066406 212.371094 226.207031 205.671875 217.644531 205.671875 Z M 211.574219 212.308594 L 217.644531 212.308594 C 222.265625 212.308594 226.101562 215.949219 226.101562 220.539062 C 226.101562 225.128906 222.265625 228.765625 217.644531 228.765625 L 211.574219 228.765625 Z M 214.160156 214.90625 L 214.160156 226.167969 L 217.644531 226.167969 C 220.929688 226.167969 223.511719 223.601562 223.511719 220.539062 C 223.511719 217.472656 220.929688 214.90625 217.644531 214.90625 Z M 214.160156 214.90625 " fill-opacity="1" fill-rule="evenodd"/><g fill="#000000" fill-opacity="1"><g transform="translate(253.947648, 302.984976)"><g><path d="M 7.890625 -14.703125 C 9.765625 -14.703125 11.234375 -14.253906 12.296875 -13.359375 C 13.367188 -12.460938 13.90625 -11.226562 13.90625 -9.65625 C 13.90625 -8.09375 13.367188 -6.863281 12.296875 -5.96875 C 11.234375 -5.082031 9.765625 -4.640625 7.890625 -4.640625 L 3.953125 -4.640625 L 3.953125 0 L 2.390625 0 L 2.390625 -14.703125 Z M 7.859375 -6 C 9.304688 -6 10.414062 -6.316406 11.1875 -6.953125 C 11.957031 -7.597656 12.34375 -8.5 12.34375 -9.65625 C 12.34375 -10.84375 11.957031 -11.753906 11.1875 -12.390625 C 10.414062 -13.035156 9.304688 -13.359375 7.859375 -13.359375 L 3.953125 -13.359375 L 3.953125 -6 Z M 7.859375 -6 "/></g></g></g><g fill="#000000" fill-opacity="1"><g transform="translate(269.017239, 302.984976)"><g><path d="M 3.5 -8.890625 C 3.851562 -9.628906 4.375 -10.1875 5.0625 -10.5625 C 5.757812 -10.9375 6.617188 -11.125 7.640625 -11.125 L 7.640625 -9.6875 L 7.28125 -9.703125 C 6.125 -9.703125 5.210938 -9.34375 4.546875 -8.625 C 3.890625 -7.914062 3.5625 -6.914062 3.5625 -5.625 L 3.5625 0 L 2.078125 0 L 2.078125 -11.046875 L 3.5 -11.046875 Z M 3.5 -8.890625 "/></g></g></g><g fill="#000000" fill-opacity="1"><g transform="translate(277.433544, 302.984976)"><g><path d="M 11.703125 -5.0625 L 2.453125 -5.0625 C 2.535156 -3.914062 2.976562 -2.988281 3.78125 -2.28125 C 4.582031 -1.570312 5.585938 -1.21875 6.796875 -1.21875 C 7.484375 -1.21875 8.113281 -1.335938 8.6875 -1.578125 C 9.269531 -1.828125 9.769531 -2.191406 10.1875 -2.671875 L 11.03125 -1.703125 C 10.539062 -1.109375 9.925781 -0.65625 9.1875 -0.34375 C 8.445312 -0.0390625 7.640625 0.109375 6.765625 0.109375 C 5.628906 0.109375 4.625 -0.128906 3.75 -0.609375 C 2.875 -1.097656 2.191406 -1.769531 1.703125 -2.625 C 1.210938 -3.476562 0.96875 -4.441406 0.96875 -5.515625 C 0.96875 -6.597656 1.203125 -7.566406 1.671875 -8.421875 C 2.140625 -9.273438 2.78125 -9.9375 3.59375 -10.40625 C 4.414062 -10.882812 5.335938 -11.125 6.359375 -11.125 C 7.378906 -11.125 8.296875 -10.882812 9.109375 -10.40625 C 9.921875 -9.9375 10.554688 -9.273438 11.015625 -8.421875 C 11.484375 -7.578125 11.71875 -6.609375 11.71875 -5.515625 Z M 6.359375 -9.84375 C 5.296875 -9.84375 4.40625 -9.503906 3.6875 -8.828125 C 2.96875 -8.148438 2.554688 -7.265625 2.453125 -6.171875 L 10.296875 -6.171875 C 10.191406 -7.265625 9.78125 -8.148438 9.0625 -8.828125 C 8.34375 -9.503906 7.441406 -9.84375 6.359375 -9.84375 Z M 6.359375 -9.84375 "/></g></g></g><g fill="#000000" fill-opacity="1"><g transform="translate(290.110472, 302.984976)"><g><path d="M 5.046875 0.109375 C 4.148438 0.109375 3.289062 -0.0195312 2.46875 -0.28125 C 1.644531 -0.539062 1.003906 -0.867188 0.546875 -1.265625 L 1.21875 -2.4375 C 1.675781 -2.070312 2.253906 -1.773438 2.953125 -1.546875 C 3.660156 -1.316406 4.390625 -1.203125 5.140625 -1.203125 C 6.148438 -1.203125 6.894531 -1.359375 7.375 -1.671875 C 7.863281 -1.984375 8.109375 -2.425781 8.109375 -3 C 8.109375 -3.40625 7.972656 -3.722656 7.703125 -3.953125 C 7.441406 -4.191406 7.109375 -4.367188 6.703125 -4.484375 C 6.296875 -4.597656 5.753906 -4.710938 5.078125 -4.828125 C 4.179688 -4.992188 3.457031 -5.164062 2.90625 -5.34375 C 2.363281 -5.519531 1.898438 -5.816406 1.515625 -6.234375 C 1.128906 -6.648438 0.9375 -7.234375 0.9375 -7.984375 C 0.9375 -8.898438 1.320312 -9.648438 2.09375 -10.234375 C 2.863281 -10.828125 3.9375 -11.125 5.3125 -11.125 C 6.03125 -11.125 6.742188 -11.03125 7.453125 -10.84375 C 8.171875 -10.65625 8.757812 -10.40625 9.21875 -10.09375 L 8.5625 -8.90625 C 7.65625 -9.53125 6.570312 -9.84375 5.3125 -9.84375 C 4.363281 -9.84375 3.644531 -9.675781 3.15625 -9.34375 C 2.675781 -9.007812 2.4375 -8.566406 2.4375 -8.015625 C 2.4375 -7.597656 2.570312 -7.265625 2.84375 -7.015625 C 3.113281 -6.765625 3.453125 -6.578125 3.859375 -6.453125 C 4.265625 -6.335938 4.828125 -6.21875 5.546875 -6.09375 C 6.421875 -5.925781 7.125 -5.753906 7.65625 -5.578125 C 8.195312 -5.410156 8.65625 -5.125 9.03125 -4.71875 C 9.40625 -4.3125 9.59375 -3.753906 9.59375 -3.046875 C 9.59375 -2.078125 9.191406 -1.304688 8.390625 -0.734375 C 7.585938 -0.171875 6.472656 0.109375 5.046875 0.109375 Z M 5.046875 0.109375 "/></g></g></g><g fill="#000000" fill-opacity="1"><g transform="translate(300.373739, 302.984976)"><g><path d="M 11.703125 -5.0625 L 2.453125 -5.0625 C 2.535156 -3.914062 2.976562 -2.988281 3.78125 -2.28125 C 4.582031 -1.570312 5.585938 -1.21875 6.796875 -1.21875 C 7.484375 -1.21875 8.113281 -1.335938 8.6875 -1.578125 C 9.269531 -1.828125 9.769531 -2.191406 10.1875 -2.671875 L 11.03125 -1.703125 C 10.539062 -1.109375 9.925781 -0.65625 9.1875 -0.34375 C 8.445312 -0.0390625 7.640625 0.109375 6.765625 0.109375 C 5.628906 0.109375 4.625 -0.128906 3.75 -0.609375 C 2.875 -1.097656 2.191406 -1.769531 1.703125 -2.625 C 1.210938 -3.476562 0.96875 -4.441406 0.96875 -5.515625 C 0.96875 -6.597656 1.203125 -7.566406 1.671875 -8.421875 C 2.140625 -9.273438 2.78125 -9.9375 3.59375 -10.40625 C 4.414062 -10.882812 5.335938 -11.125 6.359375 -11.125 C 7.378906 -11.125 8.296875 -10.882812 9.109375 -10.40625 C 9.921875 -9.9375 10.554688 -9.273438 11.015625 -8.421875 C 11.484375 -7.578125 11.71875 -6.609375 11.71875 -5.515625 Z M 6.359375 -9.84375 C 5.296875 -9.84375 4.40625 -9.503906 3.6875 -8.828125 C 2.96875 -8.148438 2.554688 -7.265625 2.453125 -6.171875 L 10.296875 -6.171875 C 10.191406 -7.265625 9.78125 -8.148438 9.0625 -8.828125 C 8.34375 -9.503906 7.441406 -9.84375 6.359375 -9.84375 Z M 6.359375 -9.84375 "/></g></g></g><g fill="#000000" fill-opacity="1"><g transform="translate(313.050668, 302.984976)"><g><path d="M 7.703125 -11.125 C 9.085938 -11.125 10.191406 -10.722656 11.015625 -9.921875 C 11.835938 -9.117188 12.25 -7.945312 12.25 -6.40625 L 12.25 0 L 10.75 0 L 10.75 -6.265625 C 10.75 -7.410156 10.460938 -8.28125 9.890625 -8.875 C 9.316406 -9.476562 8.5 -9.78125 7.4375 -9.78125 C 6.25 -9.78125 5.304688 -9.425781 4.609375 -8.71875 C 3.910156 -8.019531 3.5625 -7.046875 3.5625 -5.796875 L 3.5625 0 L 2.078125 0 L 2.078125 -11.046875 L 3.5 -11.046875 L 3.5 -9.015625 C 3.90625 -9.679688 4.46875 -10.195312 5.1875 -10.5625 C 5.914062 -10.9375 6.753906 -11.125 7.703125 -11.125 Z M 7.703125 -11.125 "/></g></g></g><g fill="#000000" fill-opacity="1"><g transform="translate(327.259731, 302.984976)"><g><path d="M 7.890625 -0.671875 C 7.609375 -0.421875 7.257812 -0.226562 6.84375 -0.09375 C 6.4375 0.0390625 6.007812 0.109375 5.5625 0.109375 C 4.53125 0.109375 3.734375 -0.171875 3.171875 -0.734375 C 2.609375 -1.296875 2.328125 -2.085938 2.328125 -3.109375 L 2.328125 -9.78125 L 0.359375 -9.78125 L 0.359375 -11.046875 L 2.328125 -11.046875 L 2.328125 -13.46875 L 3.828125 -13.46875 L 3.828125 -11.046875 L 7.1875 -11.046875 L 7.1875 -9.78125 L 3.828125 -9.78125 L 3.828125 -3.1875 C 3.828125 -2.53125 3.988281 -2.03125 4.3125 -1.6875 C 4.644531 -1.34375 5.117188 -1.171875 5.734375 -1.171875 C 6.035156 -1.171875 6.332031 -1.21875 6.625 -1.3125 C 6.914062 -1.414062 7.164062 -1.5625 7.375 -1.75 Z M 7.890625 -0.671875 "/></g></g></g><g fill="#000000" fill-opacity="1"><g transform="translate(335.780978, 302.984976)"><g><path d="M 5.046875 0.109375 C 4.148438 0.109375 3.289062 -0.0195312 2.46875 -0.28125 C 1.644531 -0.539062 1.003906 -0.867188 0.546875 -1.265625 L 1.21875 -2.4375 C 1.675781 -2.070312 2.253906 -1.773438 2.953125 -1.546875 C 3.660156 -1.316406 4.390625 -1.203125 5.140625 -1.203125 C 6.148438 -1.203125 6.894531 -1.359375 7.375 -1.671875 C 7.863281 -1.984375 8.109375 -2.425781 8.109375 -3 C 8.109375 -3.40625 7.972656 -3.722656 7.703125 -3.953125 C 7.441406 -4.191406 7.109375 -4.367188 6.703125 -4.484375 C 6.296875 -4.597656 5.753906 -4.710938 5.078125 -4.828125 C 4.179688 -4.992188 3.457031 -5.164062 2.90625 -5.34375 C 2.363281 -5.519531 1.898438 -5.816406 1.515625 -6.234375 C 1.128906 -6.648438 0.9375 -7.234375 0.9375 -7.984375 C 0.9375 -8.898438 1.320312 -9.648438 2.09375 -10.234375 C 2.863281 -10.828125 3.9375 -11.125 5.3125 -11.125 C 6.03125 -11.125 6.742188 -11.03125 7.453125 -10.84375 C 8.171875 -10.65625 8.757812 -10.40625 9.21875 -10.09375 L 8.5625 -8.90625 C 7.65625 -9.53125 6.570312 -9.84375 5.3125 -9.84375 C 4.363281 -9.84375 3.644531 -9.675781 3.15625 -9.34375 C 2.675781 -9.007812 2.4375 -8.566406 2.4375 -8.015625 C 2.4375 -7.597656 2.570312 -7.265625 2.84375 -7.015625 C 3.113281 -6.765625 3.453125 -6.578125 3.859375 -6.453125 C 4.265625 -6.335938 4.828125 -6.21875 5.546875 -6.09375 C 6.421875 -5.925781 7.125 -5.753906 7.65625 -5.578125 C 8.195312 -5.410156 8.65625 -5.125 9.03125 -4.71875 C 9.40625 -4.3125 9.59375 -3.753906 9.59375 -3.046875 C 9.59375 -2.078125 9.191406 -1.304688 8.390625 -0.734375 C 7.585938 -0.171875 6.472656 0.109375 5.046875 0.109375 Z M 5.046875 0.109375 "/></g></g></g></svg>